# xmcd CD database file generated by Grip 3.2.0
# 
# Track frame offsets:
#       150
#       20579
#       43228
#       65774
#       80041
#       102072
#       124455
#       131156
#       147834
#       167675
# 
# Disc length: 2702 seconds
# 
# Revision: 1
# Processed by: cddbd v1.5.2PL0 Copyright (c) Steve Scherf et al.
# Submitted via: Grip 3.2.0
# 
DISCID=950a8c0a
DTITLE=Little Miss Higgins - Across The Plains
DYEAR=2010
DGENRE=Blues
TTITLE0=Beautiful Sun
TTITLE1=The Tornado Song
TTITLE2=Bargain! Shop Panties
TTITLE3=Wash These Blues Away
TTITLE4=Snowin' Today: A Lament For Louis Riel
TTITLE5=Hope You Don't Feel Blue
TTITLE6=Gather My Fruit
TTITLE7=My Love
TTITLE8=Glad your Whiskey Fits Inside My Purse
TTITLE9=Slaughterhouse (Revisited)
EXTD=
EXTT0=
EXTT1=
EXTT2=
EXTT3=
EXTT4=
EXTT5=
EXTT6=
EXTT7=
EXTT8=
EXTT9=
PLAYORDER=
